<svg xmlns="http://www.w3.org/2000/svg" xmlns:xlink="http://www.w3.org/1999/xlink" version="1.1" width="256" height="256" viewBox="0 0 256 256" xml:space="preserve">

<defs>
</defs>
<g style="stroke: none; stroke-width: 0; stroke-dasharray: none; stroke-linecap: butt; stroke-linejoin: miter; stroke-miterlimit: 10; fill: none; fill-rule: nonzero; opacity: 1;" transform="translate(1.4065934065934016 1.4065934065934016) scale(2.81 2.81)" >
	<circle cx="45" cy="45" r="44" style="stroke: none; stroke-width: 1; stroke-dasharray: none; stroke-linecap: butt; stroke-linejoin: miter; stroke-miterlimit: 10; fill: rgb(220,244,219); fill-rule: nonzero; opacity: 1;" transform="  matrix(1 0 0 1 0 0) "/>
	<path d="M 45 90 C 20.187 90 0 69.813 0 45 C 0 20.187 20.187 0 45 0 c 24.813 0 45 20.187 45 45 C 90 69.813 69.813 90 45 90 z M 45 2 C 21.29 2 2 21.29 2 45 c 0 23.71 19.29 43 43 43 c 23.71 0 43 -19.29 43 -43 C 88 21.29 68.71 2 45 2 z" style="stroke: none; stroke-width: 1; stroke-dasharray: none; stroke-linecap: butt; stroke-linejoin: miter; stroke-miterlimit: 10; fill: rgb(0,0,0); fill-rule: nonzero; opacity: 1;" transform=" matrix(1 0 0 1 0 0) " stroke-linecap="round" />
	<path d="M 59.356 52.66 h -2.524 c -2.135 0 -3.872 -1.737 -3.872 -3.872 v -7.576 c 0 -2.135 1.737 -3.872 3.872 -3.872 h 2.524 c 2.135 0 3.872 1.737 3.872 3.872 v 7.576 C 63.229 50.923 61.491 52.66 59.356 52.66 z M 56.832 39.34 c -1.032 0 -1.872 0.84 -1.872 1.872 v 7.576 c 0 1.032 0.84 1.872 1.872 1.872 h 2.524 c 1.032 0 1.872 -0.84 1.872 -1.872 v -7.576 c 0 -1.032 -0.84 -1.872 -1.872 -1.872 H 56.832 z" style="stroke: none; stroke-width: 1; stroke-dasharray: none; stroke-linecap: butt; stroke-linejoin: miter; stroke-miterlimit: 10; fill: rgb(0,0,0); fill-rule: nonzero; opacity: 1;" transform=" matrix(1 0 0 1 0 0) " stroke-linecap="round" />
	<path d="M 45.487 52.66 h -2.524 c -2.135 0 -3.872 -1.737 -3.872 -3.872 v -7.576 c 0 -2.135 1.737 -3.872 3.872 -3.872 h 2.524 c 2.135 0 3.872 1.737 3.872 3.872 c 0 0.552 -0.447 1 -1 1 s -1 -0.448 -1 -1 c 0 -1.032 -0.84 -1.872 -1.872 -1.872 h -2.524 c -1.032 0 -1.872 0.84 -1.872 1.872 v 7.576 c 0 1.032 0.84 1.872 1.872 1.872 h 2.524 c 1.032 0 1.872 -0.84 1.872 -1.872 c 0 -0.553 0.447 -1 1 -1 s 1 0.447 1 1 C 49.358 50.923 47.622 52.66 45.487 52.66 z" style="stroke: none; stroke-width: 1; stroke-dasharray: none; stroke-linecap: butt; stroke-linejoin: miter; stroke-miterlimit: 10; fill: rgb(0,0,0); fill-rule: nonzero; opacity: 1;" transform=" matrix(1 0 0 1 0 0) " stroke-linecap="round" />
	<path d="M 34.51 52.66 h -6.738 c -0.552 0 -1 -0.447 -1 -1 V 38.34 c 0 -0.552 0.448 -1 1 -1 h 6.738 c 0.552 0 1 0.448 1 1 s -0.448 1 -1 1 h -5.738 v 11.32 h 5.738 c 0.552 0 1 0.447 1 1 S 35.062 52.66 34.51 52.66 z" style="stroke: none; stroke-width: 1; stroke-dasharray: none; stroke-linecap: butt; stroke-linejoin: miter; stroke-miterlimit: 10; fill: rgb(0,0,0); fill-rule: nonzero; opacity: 1;" transform=" matrix(1 0 0 1 0 0) " stroke-linecap="round" />
	<path d="M 32.467 46 h -4.695 c -0.552 0 -1 -0.448 -1 -1 s 0.448 -1 1 -1 h 4.695 c 0.552 0 1 0.448 1 1 S 33.019 46 32.467 46 z" style="stroke: none; stroke-width: 1; stroke-dasharray: none; stroke-linecap: butt; stroke-linejoin: miter; stroke-miterlimit: 10; fill: rgb(0,0,0); fill-rule: nonzero; opacity: 1;" transform=" matrix(1 0 0 1 0 0) " stroke-linecap="round" />
	<path d="M 48.535 80.636 c 1.951 1.114 4.326 1.485 6.659 0.848 c 7.356 -2.009 10.396 -8.452 13.346 -16.038 c 0.037 -0.095 0.016 -0.204 -0.055 -0.277 c -0.071 -0.074 -0.178 -0.1 -0.275 -0.067 c -3.939 1.336 -6.433 0.623 -9.073 -0.132 c -2.419 -0.692 -4.92 -1.407 -8.565 -0.412 c -4.667 1.274 -7.427 6.108 -6.152 10.775 C 45.057 77.665 46.584 79.522 48.535 80.636 z" style="stroke: none; stroke-width: 1; stroke-dasharray: none; stroke-linecap: butt; stroke-linejoin: miter; stroke-miterlimit: 10; fill: rgb(122,221,120); fill-rule: nonzero; opacity: 1;" transform=" matrix(1 0 0 1 0 0) " stroke-linecap="round" />
	<path d="M 52.874 82.797 c -1.678 0 -3.336 -0.437 -4.835 -1.293 c -2.269 -1.296 -3.897 -3.395 -4.584 -5.908 c -1.419 -5.199 1.655 -10.584 6.854 -12.004 c 3.915 -1.066 6.671 -0.279 9.102 0.415 c 2.593 0.742 4.832 1.387 8.479 0.147 c 0.462 -0.159 0.979 -0.03 1.318 0.322 c 0.338 0.353 0.442 0.875 0.266 1.331 c -3.05 7.844 -6.209 14.509 -14.015 16.641 C 54.604 82.682 53.736 82.797 52.874 82.797 z M 54.068 65.064 c -0.974 0 -2.032 0.129 -3.232 0.457 c -4.135 1.129 -6.581 5.412 -5.451 9.547 c 0.546 1.999 1.841 3.668 3.646 4.699 s 3.9 1.298 5.899 0.751 c 6.466 -1.766 9.438 -7.328 12.129 -14.043 c -3.431 0.818 -5.851 0.127 -8.198 -0.546 C 57.319 65.489 55.833 65.064 54.068 65.064 z" style="stroke: none; stroke-width: 1; stroke-dasharray: none; stroke-linecap: butt; stroke-linejoin: miter; stroke-miterlimit: 10; fill: rgb(0,0,0); fill-rule: nonzero; opacity: 1;" transform=" matrix(1 0 0 1 0 0) " stroke-linecap="round" />
	<path d="M 45.148 75.424 c -6.81 0 -13.35 -2.155 -19.045 -6.37 c -8.427 -6.237 -13.662 -16.142 -13.662 -25.848 c 0 -0.552 0.448 -1 1 -1 s 1 0.448 1 1 c 0 9.084 4.924 18.374 12.852 24.241 c 7.937 5.875 17.638 7.481 27.317 4.528 c 0.53 -0.165 1.088 0.137 1.248 0.664 c 0.162 0.528 -0.136 1.087 -0.664 1.248 C 51.828 74.915 48.456 75.424 45.148 75.424 z" style="stroke: none; stroke-width: 1; stroke-dasharray: none; stroke-linecap: butt; stroke-linejoin: miter; stroke-miterlimit: 10; fill: rgb(0,0,0); fill-rule: nonzero; opacity: 1;" transform=" matrix(1 0 0 1 0 0) " stroke-linecap="round" />
	<path d="M 41.465 9.364 c -1.951 -1.114 -4.326 -1.485 -6.659 -0.848 c -7.356 2.009 -10.396 8.452 -13.346 16.038 c -0.037 0.095 -0.016 0.204 0.055 0.277 c 0.071 0.074 0.178 0.1 0.275 0.067 c 3.939 -1.336 6.433 -0.623 9.073 0.132 c 2.419 0.692 4.92 1.407 8.565 0.412 c 4.667 -1.274 7.427 -6.108 6.152 -10.775 C 44.943 12.335 43.416 10.478 41.465 9.364 z" style="stroke: none; stroke-width: 1; stroke-dasharray: none; stroke-linecap: butt; stroke-linejoin: miter; stroke-miterlimit: 10; fill: rgb(122,221,120); fill-rule: nonzero; opacity: 1;" transform=" matrix(1 0 0 1 0 0) " stroke-linecap="round" />
	<path d="M 35.939 26.931 c -2.07 0 -3.778 -0.489 -5.351 -0.938 c -2.595 -0.742 -4.833 -1.383 -8.477 -0.147 c -0.461 0.158 -0.98 0.031 -1.319 -0.324 c -0.335 -0.346 -0.441 -0.869 -0.265 -1.326 c 3.051 -7.847 6.211 -14.513 14.016 -16.644 c 2.515 -0.687 5.149 -0.351 7.418 0.944 l 0 0 c 2.27 1.296 3.897 3.395 4.584 5.909 c 0.687 2.514 0.352 5.149 -0.945 7.418 c -1.296 2.269 -3.395 3.897 -5.909 4.584 C 38.308 26.785 37.069 26.931 35.939 26.931 z M 25.991 23.153 c 1.941 0 3.56 0.463 5.147 0.917 c 2.391 0.684 4.651 1.332 8.026 0.408 c 2 -0.546 3.668 -1.841 4.699 -3.646 c 1.031 -1.806 1.298 -3.901 0.752 -5.9 c -0.546 -1.999 -1.841 -3.668 -3.646 -4.699 l 0 0 c -1.805 -1.03 -3.9 -1.298 -5.9 -0.752 c -6.464 1.765 -9.438 7.329 -12.129 14.044 C 24.052 23.259 25.059 23.153 25.991 23.153 z M 21.471 23.951 c -0.002 0 -0.004 0.001 -0.006 0.002 C 21.467 23.952 21.469 23.951 21.471 23.951 z" style="stroke: none; stroke-width: 1; stroke-dasharray: none; stroke-linecap: butt; stroke-linejoin: miter; stroke-miterlimit: 10; fill: rgb(0,0,0); fill-rule: nonzero; opacity: 1;" transform=" matrix(1 0 0 1 0 0) " stroke-linecap="round" />
	<path d="M 76.559 47.795 c -0.553 0 -1 -0.447 -1 -1 c 0 -9.085 -4.925 -18.374 -12.852 -24.241 c -7.938 -5.875 -17.64 -7.484 -27.317 -4.527 c -0.527 0.161 -1.087 -0.136 -1.249 -0.665 c -0.161 -0.528 0.136 -1.087 0.665 -1.249 c 10.297 -3.145 20.631 -1.43 29.092 4.833 c 8.427 6.237 13.661 16.142 13.661 25.849 C 77.559 47.348 77.111 47.795 76.559 47.795 z" style="stroke: none; stroke-width: 1; stroke-dasharray: none; stroke-linecap: butt; stroke-linejoin: miter; stroke-miterlimit: 10; fill: rgb(0,0,0); fill-rule: nonzero; opacity: 1;" transform=" matrix(1 0 0 1 0 0) " stroke-linecap="round" />
</g>
</svg>